<svg width="24" height="24" viewBox="0 0 24 24" fill="none" xmlns="http://www.w3.org/2000/svg">
<g clip-path="url(#clip0_63_18448)">
<path d="M22.286 5.52295V23.9999H2.24023V0H16.7631L19.3355 2.57245L22.286 5.52295Z" fill="#B12A27"/>
<path d="M11.3278 1.60742H1.71387V5.90905H11.3278V1.60742Z" fill="#F2F2F2"/>
<path d="M5.1622 3.01805C5.11977 2.91559 5.06324 2.82371 4.98552 2.74599C4.9078 2.66827 4.81237 2.60466 4.70282 2.56224C4.58976 2.5163 4.46254 2.49512 4.32121 2.49512H3.26465V5.22301H3.79823V4.19471H4.32121C4.46254 4.19471 4.58976 4.17352 4.70282 4.12759C4.81237 4.08516 4.90776 4.0216 4.98552 3.94384C5.06329 3.86612 5.11982 3.77776 5.1622 3.67177C5.20105 3.5693 5.22229 3.45976 5.22229 3.3467C5.22224 3.23007 5.20105 3.12052 5.1622 3.01805ZM4.5862 3.6152C4.51551 3.68232 4.4166 3.71766 4.29646 3.71766H3.79823V2.96855H4.29646C4.4166 2.96855 4.51555 3.0039 4.5862 3.07454C4.65332 3.14166 4.68866 3.23354 4.68866 3.3466C4.68871 3.4562 4.65337 3.54807 4.5862 3.6152Z" fill="#B12A27"/>
<path d="M7.71355 3.55163C7.71003 3.45624 7.70647 3.37145 7.69588 3.29368C7.68528 3.21591 7.66761 3.14527 7.64286 3.07815C7.61811 3.01454 7.58633 2.95093 7.54391 2.8944C7.44852 2.75659 7.33189 2.65412 7.20116 2.59051C7.06686 2.5269 6.90786 2.49512 6.72059 2.49512H5.73828V5.22301H6.72059C6.90786 5.22301 7.06686 5.19123 7.20116 5.12762C7.33189 5.06401 7.44852 4.96154 7.54391 4.82373C7.58633 4.7672 7.61811 4.70359 7.64286 4.63998C7.66761 4.57285 7.68528 4.50216 7.69588 4.42445C7.70647 4.34673 7.70998 4.26188 7.71355 4.16649C7.71706 4.07462 7.71706 3.97215 7.71706 3.85909C7.71706 3.74602 7.71706 3.64351 7.71355 3.55163ZM7.17997 4.13471C7.17997 4.21599 7.17289 4.2796 7.16581 4.33613C7.15873 4.38915 7.14814 4.4386 7.13403 4.47395C7.11992 4.5128 7.09869 4.54815 7.07398 4.57993C6.98563 4.69299 6.85137 4.74601 6.6747 4.74601H6.26834V2.9686H6.6747C6.85137 2.9686 6.98567 3.02513 7.07398 3.1382C7.09873 3.16998 7.11992 3.2018 7.13403 3.24066C7.14814 3.27952 7.15878 3.32546 7.16581 3.38199C7.17289 3.43501 7.17997 3.50213 7.17997 3.57985C7.18348 3.65762 7.18348 3.75301 7.18348 3.85899C7.18353 3.96507 7.18353 4.05695 7.17997 4.13471Z" fill="#B12A27"/>
<path d="M9.99244 2.9686V2.49512H8.19385V5.22301H8.72743V4.11704H9.80518V3.63999H8.72743V2.9686H9.99244Z" fill="#B12A27"/>
<path d="M5.1622 3.01805C5.11977 2.91559 5.06324 2.82371 4.98552 2.74599C4.9078 2.66827 4.81237 2.60466 4.70282 2.56224C4.58976 2.5163 4.46254 2.49512 4.32121 2.49512H3.26465V5.22301H3.79823V4.19471H4.32121C4.46254 4.19471 4.58976 4.17352 4.70282 4.12759C4.81237 4.08516 4.90776 4.0216 4.98552 3.94384C5.06329 3.86612 5.11982 3.77776 5.1622 3.67177C5.20105 3.5693 5.22229 3.45976 5.22229 3.3467C5.22224 3.23007 5.20105 3.12052 5.1622 3.01805ZM4.5862 3.6152C4.51551 3.68232 4.4166 3.71766 4.29646 3.71766H3.79823V2.96855H4.29646C4.4166 2.96855 4.51555 3.0039 4.5862 3.07454C4.65332 3.14166 4.68866 3.23354 4.68866 3.3466C4.68871 3.4562 4.65337 3.54807 4.5862 3.6152Z" fill="#B12A27"/>
<path opacity="0.08" d="M22.286 5.52277V23.9997H2.24023V19.6676L11.6112 10.2966L12.166 9.74184L12.4734 9.43439L12.9858 8.92205L13.5935 8.31427L19.3355 2.57227L22.286 5.52277Z" fill="#040000"/>
<path d="M22.2858 5.52356H16.7622V0L22.2858 5.52356Z" fill="#771B1B"/>
<path d="M19.424 17.3742C19.3074 17.1693 19.1484 16.9749 18.9505 16.7983C18.788 16.6499 18.5972 16.512 18.3816 16.3848C17.5123 15.8725 16.2721 15.6251 14.5865 15.6251H14.4169C14.3251 15.5403 14.2297 15.4555 14.1307 15.3672C13.4912 14.7912 12.9823 14.1658 12.5866 13.4697C13.3639 11.7559 13.735 10.2294 13.689 8.92902C13.6819 8.70993 13.6502 8.50499 13.5936 8.31416C13.5088 8.00676 13.3675 7.73465 13.1696 7.51204C13.1661 7.50852 13.1661 7.50852 13.1625 7.50496C12.848 7.15162 12.4099 6.9502 11.9646 6.9502C11.5159 6.9502 11.1025 7.14454 10.8021 7.50145C10.5053 7.85479 10.3463 8.33891 10.3392 8.90779C10.3286 9.77704 10.3992 10.6004 10.5477 11.3601C10.5618 11.4201 10.5724 11.4802 10.5866 11.5402C10.735 12.2293 10.9541 12.883 11.2367 13.4908C10.9046 14.1657 10.5689 14.7487 10.3356 15.1445C10.159 15.4448 9.96462 15.7593 9.7632 16.0738C8.85509 16.2364 8.08475 16.4342 7.4134 16.6816C6.50529 17.0102 5.77737 17.4342 5.25439 17.9395C4.91515 18.2646 4.68546 18.6109 4.5724 18.9713C4.45226 19.3424 4.45934 19.7134 4.59359 20.0455C4.71725 20.3529 4.93985 20.6109 5.23671 20.7876C5.3074 20.83 5.3816 20.8653 5.45932 20.8971C5.6855 20.989 5.93281 21.0384 6.19076 21.0384C6.78795 21.0384 7.40276 20.7805 7.92218 20.3176C8.89039 19.4519 9.89037 18.0597 10.4805 17.1798C10.9646 17.1056 11.4911 17.042 12.0847 16.9784C12.7844 16.9077 13.4028 16.8653 13.9646 16.8441C14.1378 16.9995 14.3038 17.1479 14.4628 17.2893C15.3462 18.0772 16.0176 18.6462 16.6254 19.0454C16.6254 19.049 16.6289 19.049 16.6324 19.049C16.8727 19.208 17.1024 19.3387 17.3321 19.4447C17.5901 19.5649 17.8515 19.6285 18.1201 19.6285C18.4593 19.6285 18.7773 19.526 19.0423 19.3387C19.3109 19.1444 19.5052 18.8653 19.5936 18.5508C19.6961 18.1728 19.636 17.7523 19.424 17.3742ZM11.6113 10.2965C11.5618 9.85832 11.5406 9.40251 11.5477 8.92195C11.5548 8.46613 11.7208 8.15868 11.9646 8.15868C12.1484 8.15868 12.3427 8.32476 12.431 8.64276C12.4558 8.73815 12.4735 8.8477 12.477 8.97135C12.4841 9.11976 12.4805 9.27524 12.4735 9.43424C12.4523 9.88302 12.3745 10.36 12.2403 10.8724C12.159 11.2011 12.053 11.5438 11.9223 11.9007C11.7739 11.399 11.6678 10.8654 11.6113 10.2965ZM5.71732 19.5968C5.65723 19.4484 5.7244 19.1622 6.0919 18.8088C6.65375 18.2717 7.53359 17.8477 8.75975 17.5261C8.52654 17.8441 8.29685 18.1339 8.07425 18.3989C7.73501 18.8088 7.40993 19.1551 7.11664 19.4166C6.86576 19.6427 6.59014 19.7841 6.32867 19.8194C6.28273 19.8265 6.23679 19.83 6.19085 19.83C5.96112 19.83 5.77386 19.7382 5.71732 19.5968ZM11.3639 15.8406L11.3887 15.8018L11.3498 15.8089C11.3569 15.7912 11.3675 15.7735 11.3781 15.7594C11.5265 15.5085 11.7138 15.187 11.9152 14.816L11.9329 14.8548L11.9788 14.7594C12.1272 14.9714 12.2898 15.1799 12.4594 15.3813C12.5406 15.4767 12.6254 15.5686 12.7102 15.6605L12.6537 15.664L12.7032 15.7099C12.5583 15.7205 12.4063 15.7347 12.2544 15.7488C12.159 15.7594 12.06 15.7664 11.9611 15.777C11.7562 15.7982 11.5548 15.8195 11.3639 15.8406ZM17.3109 18.0456C16.8904 17.777 16.4205 17.3989 15.841 16.8936C16.6643 16.9784 17.3109 17.1586 17.7703 17.4272C17.9717 17.5438 18.1236 17.6639 18.2261 17.7805C18.3957 17.9607 18.4558 18.1233 18.424 18.2328C18.3957 18.3424 18.272 18.4166 18.1201 18.4166C18.0317 18.4166 17.9399 18.3954 17.8444 18.3494C17.6819 18.2717 17.5123 18.1763 17.3321 18.0597C17.325 18.0597 17.318 18.0526 17.3109 18.0456Z" fill="#F2F2F2"/>
</g>
<defs>
<clipPath id="clip0_63_18448">
<rect width="24" height="24" fill="white"/>
</clipPath>
</defs>
</svg>
